<?xml version="1.0" encoding="utf-8"?>
<!-- Generator: Adobe Illustrator 23.0.2, SVG Export Plug-In . SVG Version: 6.00 Build 0)  -->
<svg version="1.1" id="Layer_1" xmlns="http://www.w3.org/2000/svg" xmlns:xlink="http://www.w3.org/1999/xlink" x="0px" y="0px"
	 viewBox="0 0 533.3 369" style="enable-background:new 0 0 533.3 369;" xml:space="preserve">
<g>
	<g>
		<path d="M108.8,252c3-3.8,5.9-7.6,8.9-11.5c10.6-13.6,21.1-27.2,31.7-40.7c0.9-1.1,2.3-2,3.7-2.6c5.2-2.3,10.5-4.3,15.7-6.5
			c1.2-0.5,2-0.4,3,0.5c2.7,2.3,5.6,4.5,8.5,6.8c1.9-2.5,3.7-4.7,5.6-7.2c12.6,10.5,25,20.9,37.4,31.4c0.2-0.1,0.3-0.3,0.5-0.4
			c-15.9-19.9-31.9-39.9-48-60c2.4-0.7,4.5-1.2,6.6-2c3.8-1.4,4.7-3.2,3.1-6.9c-1.9-4.5-4.1-8.8-6-13.3c-0.9-2-1.5-4.1-2.3-6.4
			c2.1,0,3.9,0,5.7,0c0.9-2.6,1.9-5,5-4.8c2.8,0.1,3.9,2.2,4.5,4.7c2.5,0,5,0,7.5,0c0.3,0,0.6-0.1,0.9-0.2c2.7-1,4-4.2,3.3-8.5
			c-0.5-3.1-2.3-4.8-5.5-4.8c-6.7,0-13.3,0-20,0c-0.8,0-1.6,0-2.4,0c0-9.9,8.5-17.6,19.5-17.8c13.3-0.3,20.1,7.9,20.6,24.6
			c7.7-2.2,15.5-4.3,23.1-6.6c1.8-0.5,3.6-1.6,5.1-2.7c3.5-2.4,4.5-5.6,3.1-9.6c-0.6-1.6-1.4-3.1-2.2-4.7c-4.5-8.6-8-17.6-9-27.3
			c-0.9-9.4,0.3-18.4,7.6-25.3c8.6-8,18.9-9,29.6-5.3c10.1,3.5,15,11.4,16.1,21.8c1.1,9.9-1.5,19.2-5.2,28.2
			c-1.5,3.7-3.4,7.2-5,10.8c-2.6,5.6-1.4,9.8,4.1,12.6c3.4,1.7,7.2,2.9,10.9,4c2.6,0.8,5.2,1.2,7.8,1.9c2.6,0.7,5.1,1.6,7.9,2.4
			c-0.5-7.8,0.6-15.1,7.1-20.4c4.1-3.3,8.9-4.5,14.1-4.2c10.9,0.6,18.7,8,18.8,17.8c-5.5,0-11.1,0-16.6,0c-1.7,0-3.4-0.1-5.2,0
			c-1,0-2,0.2-2.8,0.5c-2.6,1.1-3.7,4.7-2.8,8.7c0.6,2.8,2.4,4.2,5.5,4.2c1.9,0,3.9,0,6,0c0.8-2.5,1.9-4.9,5.1-4.7
			c2.7,0.2,3.7,2.3,4.4,4.7c1.7,0,3.4,0,5.6,0c-1.6,4.1-3,7.8-4.7,11.5c-1.5,3.3-3.2,6.4-4.9,9.6c-1,1.9-1,3.2,1.3,4.2
			c2.3,1,4.3,2.3,6.6,3.5c-6.7,11.3-13.3,22.4-19.9,33.6c0.1,0.1,0.2,0.2,0.3,0.4c3.8-1.6,7.7-3,11.5-4.7c1.9-0.8,3.2-0.8,4.7,0.7
			c2.4,2.2,5,4,7.7,6.2c1.6-2,3.1-3.9,4.5-5.9c0.8-1.1,1.4-1.2,2.6-0.5c4.7,2.6,9.4,5.2,14.1,7.8c0.7,0.4,1.4,0.9,1.9,1.5
			c12.7,17.1,25.3,34.3,38,51.4c0.1,0.1,0.1,0.3,0.2,0.4c-101.4,0-202.8,0-304.1,0C109,252.5,108.9,252.2,108.8,252z M313.2,187.5
			c-16.2-23-33.4-47.3-50.7-71.8c-11.9,17.4-23.6,34.5-35.3,51.6c0.1,0.1,0.2,0.2,0.4,0.3c8.7-6.1,17.3-12.3,26-18.4
			c3.2,2.8,6.3,5.6,9.5,8.4c2.9-4.2,5.6-8.4,8.7-12.9C286.1,159.5,300.2,174.1,313.2,187.5z M269.8,84.1c2.8,0,5.6,0,8.5,0
			c4.5,0,7.1-2.3,7.6-6.8c0.2-1.6,0.2-3.3,0-4.9c-0.4-4.5-3.2-6.9-7.8-6.9c-10,0-19.9,0-29.9,0c-4.9,0-7.5,2.3-7.9,7.2
			c-0.2,2.1,0,4.2,0.4,6.2c0.6,2.9,2.9,5,5.5,5.1c3.4,0.1,6.9,0,10.3,0c1.4-4.5,3.5-6.7,6.6-6.7C266.2,77.4,268.3,79.5,269.8,84.1z"
			/>
		<path d="M318.7,73.1c0,5,0,9.7,0,14.3c-0.2,0.1-0.4,0.1-0.6,0.2c-9-10.9-18-21.7-27.1-32.8c13.2-6.5,26.1-12.8,39.7-19.5
			c-2.4,4.9-4.5,9.4-6.7,14c50.2,17.8,88.7,49.1,113.5,96.6c18,34.4,23.9,70.6,21.4,101.1c-1.9-0.9-3.7-1.7-5.4-2.7
			c-4.5-2.7-8.9-2.4-13.3,0.5c-1.5,1-3,1.8-4.6,2.6c-0.3-0.1-0.5-0.2-0.8-0.3c0-5.2,0.2-10.4,0-15.7c-1.9-35.5-11.7-68.3-33.2-97.1
			c-14.9-19.9-33.7-35.4-55.2-47.6c-8.2-4.6-16.8-8.5-25.2-12.7C320.5,73.8,319.8,73.6,318.7,73.1z"/>
		<path d="M206.9,87.8c0-4.4,0-8.8,0-13.6c-36.4,13.3-65.2,35.5-86.6,67.5C99,173.9,90.4,209.4,92.1,248.1c-1.7-1.3-3-2.3-4.4-3.3
			c-5-3.7-8.3-3.8-13.6-0.5c-2.1,1.3-4.1,2.8-6.3,4.3c-2.1-44.5,8.4-85.4,33.4-122.3c25-36.8,59-61.8,100.9-76.5
			c-2.2-4.7-4.3-9.2-6.6-14.3c13.3,6.5,26.1,12.8,39.3,19.2C225.6,65.9,216.5,77,207.4,88C207.3,87.9,207.1,87.9,206.9,87.8z"/>
		<path d="M209.3,325c-9.6,3.4-19.3,1.1-29,2c0-22.2,0-44.1,0-66.2c4.8,0,9.6,0,14.6,0c0,19.4,0,38.8,0,58.3c3.3,0,6.3,0.3,9.2-0.1
			c2.9-0.3,5.2-3.4,5.3-6.5c0.1-6.2,0.1-12.4,0.1-18.6c0-10.1,0-20.2,0-30.3c0-0.9,0-1.8,0-2.8c5,0,9.8,0,14.8,0c0,19.5,0,39,0,59
			c3.3-0.3,6.4-0.3,9.4-0.8c2.8-0.5,4.9-3.4,5-6.4c0.1-2.8,0.1-5.5,0.1-8.3c0-13.6,0-27.1,0-40.7c0-0.9,0-1.8,0-2.7
			c5.1,0,9.9,0,14.9,0c0,0.6,0.1,1.1,0.1,1.6c0,12.8,0,25.6,0,38.4c0,12.1-7.4,22.2-18.5,25.2c-2.2,0.6-4.6,0.8-6.9,0.8
			c-5.5,0.1-10.9,0-16.4,0C210.5,326.9,209.1,327,209.3,325z"/>
		<path d="M271.4,260.7c10.2,0,20.3-0.2,30.3,0.1c7.9,0.3,13.6,6.8,13.7,14.7c0,1.6,0,3.3,0,4.9c-0.3,5.9-3.2,10-8.7,12.1
			c-1.1,0.4-2.2,0.7-3.5,1.1c8.3,1.9,12.3,6.8,12.3,15.2c0,2.1,0.1,4.2-0.3,6.3c-1.1,6.2-7.8,11.9-14.2,11.7c-9.2-0.2-18.4,0-27.6,0
			c-0.6,0-1.2-0.1-1.9-0.1C271.4,304.7,271.4,282.8,271.4,260.7z M286.2,319.3c1,0,1.9,0,2.8,0c1.9,0,3.8,0.1,5.6-0.2
			c3.4-0.4,5.9-3.4,5.9-6.8c0-2.8,0-5.7,0-8.5c-0.1-3.3-1.7-5.6-4.9-5.9c-3.1-0.4-6.2-0.1-9.3-0.1
			C286.2,304.9,286.2,312,286.2,319.3z M286.1,290c2.7,0,5.3,0.1,7.8,0c3.7-0.2,6.5-3.2,6.5-7c0-2.5,0-5.1,0-7.6
			c0-3.4-2.3-6.4-5.6-6.8c-2.8-0.4-5.8-0.1-8.7-0.1C286.1,275.6,286.1,282.7,286.1,290z"/>
		<path d="M504.5,250c5.9,0,11.4,0,17,0c0.1,0.2,0.2,0.3,0.2,0.4c0,8.9,0.3,17.8-0.1,26.7c-0.3,8.2-4.8,13-13,14.9
			c-1.2,0.3-2.3,0.5-3.8,0.7c0,11.2,0,22.5,0,33.9c-5.9,0-11.6,0-17.5,0c0-11.3,0-22.6,0-33.6c-2.7-0.8-5.2-1.3-7.5-2.2
			c-5.8-2.3-9.1-6.8-9.3-12.9c-0.3-9.3-0.1-18.5-0.1-27.9c5.6,0,11.3,0,17.2,0c0,1.7,0,3.3,0,5c0,6.8,0,13.6,0,20.4
			c0,3.9,2.2,7,5.6,8.2c3.4,1.2,7,0.4,9.2-2.7c1.1-1.4,1.8-3.5,1.9-5.3C504.6,267.1,504.5,258.7,504.5,250z"/>
		<path d="M421.5,326.7c0-22,0-43.9,0-66.1c0.7,0,1.4,0,2,0c8.7,0,17.4,0,26.1,0c9.9,0,16,6.1,16,15.9c0,11.5,0,22.9,0,34.4
			c0,9.8-6.1,15.9-15.8,15.9c-9.1,0-18.3,0-27.4,0C422.2,326.8,422,326.8,421.5,326.7z M436.4,319.2c2.7,0,5.3,0.1,7.9,0
			c3.6-0.3,6.3-3.1,6.4-6.6c0.1-12.5,0.1-25,0-37.5c0-3.2-2.3-6.1-5.5-6.5c-2.9-0.4-5.9-0.1-8.8-0.1
			C436.4,285.4,436.4,302.2,436.4,319.2z"/>
		<path d="M372.5,326.7c0-22,0-43.9,0-66.1c0.7,0,1.3,0,1.8,0c8.8,0,17.7,0,26.5,0c9.6,0,15.8,6.2,15.8,15.7c0,11.6,0,23.2,0,34.8
			c0,9.5-6.1,15.6-15.6,15.6c-9.2,0-18.4,0-27.6,0C373.2,326.8,372.9,326.8,372.5,326.7z M387.3,319.3c2.7,0,5.3,0.1,7.8,0
			c3.8-0.2,6.5-3.1,6.5-6.9c0.1-12.3,0.1-24.7,0-37c0-3.1-1.9-5.9-4.9-6.5c-3.1-0.6-6.3-0.4-9.5-0.6
			C387.3,285.4,387.3,302.2,387.3,319.3z"/>
		<path d="M129,293.7c0-5.8,0-11.7,0-17.5c0-9.2,6.2-15.4,15.3-15.5c4.5-0.1,9-0.1,13.5,0c9,0.1,15.3,6.2,15.4,15.2
			c0.1,12,0.1,24,0,35.9c-0.1,8.9-6.5,15-15.4,15c-4.6,0-9.3,0-13.9,0c-8.5-0.1-14.7-6.2-14.9-14.7C128.9,306,129,299.9,129,293.7z
			 M143.9,293.9c0,6-0.1,12,0,18c0.1,4.5,3,7.4,7.3,7.3c4.1,0,7.1-3,7.1-7.4c0.1-11.9,0.1-23.8,0-35.7c0-4.5-3-7.8-7.2-7.9
			c-4.3-0.1-7.3,3.2-7.3,7.9C143.8,282.1,143.9,288,143.9,293.9z"/>
		<path d="M19.3,309.3c3,0,5.8,0,8.6,0c0.9,6.1,3.4,8.5,8.8,8.5c3.3,0,6.4-0.6,7.9-4c1.5-3.6,1.4-7.2-1.3-10.3
			c-4.8-5.4-9.7-10.8-14.5-16.3c-1.8-2.1-3.6-4.2-5.5-6.2c-5.8-6.4-6.2-22.3,1.9-28.7c3.1-2.5,6.4-4.2,10.4-4.3
			c4.1-0.1,8.2-0.2,12.3,0.1c9.4,0.5,15.7,7.8,15.1,17.4c-2.8,0-5.6,0-8.6,0c-0.1-0.5-0.2-1-0.4-1.6c-1.5-6.4-7-9-13-6.1
			c-4.6,2.2-5.6,9-1.9,13.4c2.4,2.9,5.1,5.7,7.6,8.6c3.8,4.2,7.4,8.7,11.4,12.7c7.2,7.2,7,24-1,30.2c-3.1,2.4-6.4,4.1-10.4,4.2
			c-3.9,0.1-7.8,0.1-11.7,0C24.7,326.4,18.8,319.9,19.3,309.3z"/>
		<path d="M349.4,260.8c5.1,0,9.9,0,14.8,0c0,0.8,0.1,1.5,0.1,2.3c0,16.1-0.2,32.2,0.1,48.3c0.2,8.7-7.3,16.1-15.3,15.6
			c-4.9-0.3-9.9,0-14.8-0.1c-7.3-0.1-13.7-6.3-14.1-13.7c0-0.6,0-1.2,0-1.8c0-16.8,0-33.5,0-50.5c4.9,0,9.7,0,14.8,0
			c0,0.8,0,1.7,0,2.5c0,16.2,0,32.3,0,48.5c0,3.4,2,6.1,4.9,7.1c3.1,1,6.4,0,8.1-2.7c0.8-1.2,1.3-2.9,1.3-4.4
			c0.1-16.2,0.1-32.3,0.1-48.5C349.4,262.5,349.4,261.7,349.4,260.8z"/>
		<path d="M113.5,297.1c0-12.4,0-24.3,0-36.3c2.5,0,4.9,0,7.4,0c0,22,0,43.9,0,65.8c-2,0.5-3.6,0.2-5.2-1.2
			c-12.3-11.2-24.6-22.3-37-33.4c-0.4-0.4-0.9-0.7-1.6-1.4c0,12.3,0,24.1,0,36.1c-2.6,0-4.9,0-7.5,0c0-21.9,0-43.9,0-65.9
			c2-0.5,3.5,0,5.1,1.4c12.3,11.2,24.7,22.3,37,33.4C112.1,296,112.6,296.4,113.5,297.1z"/>
	</g>
</g>
</svg>
