<?xml version="1.0" encoding="utf-8"?>
<!-- Generator: Adobe Illustrator 23.0.2, SVG Export Plug-In . SVG Version: 6.00 Build 0)  -->
<svg version="1.1" id="Layer_1" xmlns="http://www.w3.org/2000/svg" xmlns:xlink="http://www.w3.org/1999/xlink" x="0px" y="0px"
	 viewBox="0 0 533.3 369" style="enable-background:new 0 0 533.3 369;" xml:space="preserve">
<style type="text/css">
	.st0{fill:#FFFFFF;}
</style>
<g>
	<path d="M319.4,105.4c0,3.6-0.1,5.6,0,7.6c0.1,1.9,0.2,3.8-0.6,6.2c-8.3-10.1-16.6-20.1-25.4-30.7c12.1-6,23.8-11.7,36.7-18
		c-2.4,4.9-4.2,8.6-6.2,12.9c52,18.3,90,52,112.4,102.5c11.7,26.5,16.4,54.3,14.7,82.9c-3.8-1.6-7.7-4.5-11.4-4.3
		c-3.8,0.1-7.5,3.3-10.7,4.8C429.6,191.2,393.3,136.6,319.4,105.4z"/>
</g>
<g>
	<path d="M106.3,270c-9.3-8-11.8-7.9-22.7,0.4c-2-42.1,8-80.3,31.4-114.7c23.4-34.5,55.3-58.1,94.9-71.9c-2-4.2-3.7-8-6.2-13.2
		c12.8,6.3,24.4,11.9,36.6,17.9c-8.6,10.4-16.8,20.4-26,31.5c0-5,0-8.6,0-13.4c-34.6,12.6-61.6,33.6-81.5,63.6
		C112.9,200.1,104.5,233.3,106.3,270z"/>
</g>
<g>
	<path d="M436.4,185.8C414,135.3,376,101.7,324,83.4c2.1-4.2,3.8-7.9,6.2-12.9c-12.9,6.3-24.5,12-36.7,18
		c8.7,10.6,17.1,20.6,25.4,30.7c0.8-2.3,0.6-4.2,0.6-6.2c-0.1-2,0-4,0-7.6c73.9,31.2,110.2,85.8,109.6,163.8
		c3.2-1.5,6.9-4.7,10.7-4.8c3.7-0.1,7.5,2.7,11.4,4.3C452.8,240.2,448.1,212.3,436.4,185.8z"/>
</g>
<g>
	<path d="M79.1,286.4h-8.2c-0.7-5.5-3.3-8.2-7.8-8.2c-2.9,0-5.1,0.7-6.5,2.1c-1.5,1.4-2.2,3.5-2.2,6.2c0,2.1,0.8,4,2.4,5.8
		l17.4,19.6c3.2,3.6,4.8,7.5,4.8,11.6v4.2c0,4.4-1.6,8.3-4.8,11.5c-3.2,3.3-7.1,4.9-11.6,4.9h-8.3c-5.4,0-9.5-1.4-12.3-4.1
		c-2.7-2.7-4.1-6.8-4.1-12.3h8.2c-0.1,0.6-0.1,1-0.1,1.3c0,2.2,0.9,3.9,2.6,5.1c1.7,1.2,3.6,1.7,5.7,1.7c2.9,0,5-0.7,6.3-2.1
		c1.3-1.4,1.9-3.5,1.9-6.2c0-2.1-0.8-4-2.4-5.8l-17.4-19.5c-3.2-3.6-4.8-7.4-4.8-11.6v-4.2c0-4.5,1.6-8.3,4.8-11.6
		c3.2-3.2,7.1-4.9,11.6-4.9h8.3C73,270,78.4,275.5,79.1,286.4z"/>
</g>
<g>
	<path d="M85.2,344v-62h3.1l38.2,34.4v-34.4h6.9v62h-3.2l-38.1-34.4V344H85.2z"/>
</g>
<g>
	<path d="M154.9,282.1h13.8c3.8,0,7,1.4,9.7,4.1s4,5.9,4,9.7v34.5c0,3.7-1.4,6.9-4,9.7c-2.7,2.7-5.9,4.1-9.7,4.1h-13.8
		c-3.8,0-7-1.3-9.7-4c-2.7-2.7-4-5.9-4-9.7v-34.5c0-3.8,1.3-7,4-9.7C147.9,283.4,151.1,282.1,154.9,282.1z M154.9,295.8v34.5
		c0,1.9,0.7,3.5,2,4.8c1.3,1.4,3,2,4.9,2c1.9,0,3.5-0.7,4.9-2c1.3-1.4,2-3,2-4.8v-34.5c0-1.9-0.7-3.5-2-4.8c-1.4-1.3-3-2-4.9-2
		c-1.9,0-3.5,0.7-4.9,2C155.6,292.3,154.9,293.9,154.9,295.8z"/>
</g>
<g>
	<path d="M189.2,282.1H203v55h6.9c1.9,0,3.5-0.7,4.9-2c1.3-1.4,2-3,2-4.8v-48.2h13.7v55h6.9c1.9,0,3.5-0.7,4.8-2c1.3-1.4,2-3,2-4.8
		v-48.2h13.8v38.4c0,6.4-2.3,11.9-6.9,16.6s-10.1,7-16.6,7h-17.8v-2.2c-2.6,1.5-5.9,2.2-9.8,2.2h-17.8V282.1z"/>
</g>
<g>
	<path d="M274.8,344v-62h27.6c3.8,0,7,1.4,9.7,4.1s4,5.9,4,9.7v3.5c0,4-1.1,7.2-3.4,9.5c-2.3,2.3-5.7,3.7-10.3,4.3
		c4.6,0,8,1.4,10.3,4.1c2.3,2.8,3.4,6,3.4,9.6v3.5c0,3.7-1.4,6.9-4.1,9.7c-2.7,2.7-5.9,4.1-9.7,4.1H274.8z M288.6,309.6h6.9
		c1.9,0,3.5-0.7,4.9-2c1.4-1.4,2-3,2-4.9v-6.9c0-1.9-0.7-3.5-2-4.8c-1.4-1.3-3-2-4.9-2h-6.9V309.6z M288.6,337.1h6.9
		c1.9,0,3.5-0.7,4.9-2c1.4-1.4,2-3,2-4.8v-6.9c0-4.6-2.3-6.9-6.9-6.9h-6.9V337.1z"/>
</g>
<g>
	<path d="M348.4,282.1h13.7v48.2c0,3.7-1.4,6.9-4,9.7c-2.7,2.7-5.9,4.1-9.7,4.1h-13.8c-3.8,0-7-1.3-9.7-4c-2.7-2.7-4-5.9-4-9.7
		v-48.2h13.7v48.2c0,1.9,0.7,3.5,2,4.8c1.3,1.4,3,2,4.9,2c1.9,0,3.5-0.7,4.9-2c1.3-1.4,2-3,2-4.8V282.1z"/>
</g>
<g>
	<path d="M369.9,344v-62h27.6c3.8,0,7,1.4,9.7,4.1s4,5.9,4,9.7v34.5c0,3.7-1.4,6.9-4,9.7c-2.7,2.7-5.9,4.1-9.7,4.1H369.9z
		 M383.7,337.1h6.9c1.9,0,3.5-0.7,4.9-2c1.3-1.4,2-3,2-4.8v-34.5c0-1.9-0.7-3.5-2-4.8c-1.4-1.3-3-2-4.9-2h-6.9V337.1z"/>
</g>
<g>
	<path d="M416,344v-62h27.6c3.8,0,7,1.4,9.7,4.1s4,5.9,4,9.7v34.5c0,3.7-1.4,6.9-4,9.7c-2.7,2.7-5.9,4.1-9.7,4.1H416z M429.7,337.1
		h6.9c1.9,0,3.5-0.7,4.9-2c1.3-1.4,2-3,2-4.8v-34.5c0-1.9-0.7-3.5-2-4.8c-1.4-1.3-3-2-4.9-2h-6.9V337.1z"/>
</g>
<g>
	<path d="M478,344v-32.1c-10.7-1.2-16-6.6-16-16v-24h16v24c0,2.2,0.8,4.1,2.4,5.7c1.6,1.6,3.5,2.4,5.7,2.4c2.2,0,4.1-0.8,5.7-2.4
		c1.6-1.6,2.4-3.5,2.4-5.7v-24h16v24c0,9.4-5.3,14.8-16,16V344H478z"/>
</g>
<path d="M325.7,152.1c-6.9-1.6-13.3-3-10.2-8.8c9.4-17.8,2.5-27.4-7.5-27.4c-6.7,0-12,4.4-12,12.4c0,20.8,12.1,9.4,12,35.6h24l0-2.5
	C332.1,156.4,331.7,153.5,325.7,152.1z"/>
<path d="M204.1,163.9h24c-0.1-26.2,12-14.8,12-35.6c0-8-5.2-12.4-12-12.4c-10,0-16.9,9.5-7.5,27.4c3.1,5.9-3.3,7.3-10.2,8.8
	c-6,1.4-6.4,4.3-6.4,9.3C204.1,161.5,204.1,163.9,204.1,163.9z"/>
<g>
	<path d="M267.7,142.9c0.1,0.2,0.2,0.3,0.3,0.5l0.1-0.1l14.3,20.6h17.7l0-3.3c0-6.7-0.5-10.6-8.5-12.5c-9.2-2.1-17.7-4-13.6-11.8
		c12.6-23.8,3.3-36.5-10-36.5c-13.5,0-22.6,13.2-10,36.5c4.3,7.9-4.6,9.7-13.6,11.8c-7.9,1.8-8.5,5.7-8.5,12.4l0,3.3h17.4l0,0
		C258.2,156.9,262.9,149.9,267.7,142.9z"/>
	<path d="M253.5,163.9l14.5-20.5c-0.1-0.2-0.2-0.3-0.3-0.5"/>
	<g>
		<path class="st0" d="M253.5,163.9L253.5,163.9L253.5,163.9C253.5,163.9,253.5,163.9,253.5,163.9z"/>
	</g>
	<g>
		<g>
			<path d="M347.1,191.7c-4.1,6.2-7.7,11.8-11.4,17.3c-3.7,5.5-7.3,11.1-11.6,17.5c-7.6-11.2-15-22.3-22.5-33.4l-26.5-15.9l-8,8
				l-9-8L233.9,193c-7.6,11.2-15.1,22.4-22.7,33.7c-8.7-12.1-16.8-23.3-25.2-35c-21.5,27.7-42.5,54.7-63.9,82.2
				c1.5,0.3,2.1,0.5,2.7,0.5c34.2,0,68.3,0,102.5,0c1.2,0,2.9-0.3,3.6-1.1c4.6-6,9.1-12.2,14-18.9c-3.6-0.3-6.2-0.6-9.7-0.9
				c5.8-8.1,11.1-15.3,16.6-23c-3.1-0.3-5.5-0.4-8.6-0.7c8.5-11.6,16.4-22.4,24.7-33.8c8.4,11.5,16.4,22.4,24.7,33.9
				c-3.4,0.2-5.6,0.4-8.7,0.6c5.7,7.9,11,15.1,16.8,23.1c-3.7,0.3-6.4,0.5-9.8,0.8c4.4,6,8.4,11.1,12,16.5c1.9,2.9,4.2,3.7,7.5,3.7
				c30.5-0.1,61-0.1,91.5,0c1.7,0,3.5,0,6.5,0C387.5,246.4,367.5,219.3,347.1,191.7z"/>
		</g>
	</g>
</g>
<g>
	<g>
		<path class="st0" d="M277.7,113.3h-19.2c-2.2,0-3.9,2-3.9,4.5v2c0,2.5,1.8,4.5,3.9,4.5h5.7c0.2-2.2,1.9-4,3.9-4s3.7,1.8,3.9,4h5.7
			c2.2,0,3.9-2,3.9-4.5v-2C281.6,115.3,279.8,113.3,277.7,113.3z"/>
	</g>
</g>
<path d="M268.2,48.4c-12.8,0-23.1,10.4-23.1,23.1s10.4,23.1,23.1,23.1s23.1-10.4,23.1-23.1S281,48.4,268.2,48.4z M276.5,83.7
	l-8.3-4.5l-8.3,4.5l1.7-9.3l-6.8-6.6l9.4-1.3l4.1-8.5l4.1,8.5l9.4,1.3l-6.8,6.6C274.9,74.3,276.5,83.7,276.5,83.7z"/>
</svg>
